<svg
  version="1.1"
  xmlns:mydata="http://www.w3.org/2000/svg"
  xmlns="http://www.w3.org/2000/svg"
  xmlns:xlink="http://www.w3.org/1999/xlink"
  viewBox="0 0 550 470">
  <g fill="#ef4a81" fill-rule="nonzero" stroke="none" stroke-width="1" stroke-linecap="butt" stroke-linejoin="miter" stroke-miterlimit="10" stroke-dasharray="" stroke-dashoffset="0" font-family="none" font-weight="none" font-size="none" text-anchor="none">
    <path d="M65,351.46499h6.11579v-37.57895c0,-4.78947 3.83158,-8.62105 8.62105,-8.62105c4.64211,0 8.62105,3.83158 8.62105,8.62105v37.57895h6.11579v-37.57895c0,-4.78947 3.90526,-8.62105 8.62105,-8.62105c4.78947,0 8.62105,3.83158 8.62105,8.62105v37.57895h6.11579v-37.57895c0,-8.10526 -6.63158,-14.73684 -14.73684,-14.73684c-5.30526,0 -9.35789,3.02105 -11.71579,6.55789c-2.28421,-3.53684 -6.33684,-6.55789 -11.64211,-6.55789c-8.10526,0 -14.73684,6.63158 -14.73684,14.73684z" />
    <path d="M138.46316,352.20183c8.10526,0 14.73684,-6.63158 14.73684,-14.73684v-23.57895c0,-8.10526 -6.63158,-14.73684 -14.73684,-14.73684c-8.10526,0 -14.73684,6.63158 -14.73684,14.73684v23.57895c0,8.10526 6.63158,14.73684 14.73684,14.73684zM138.46316,346.08604c-4.78947,0 -8.62105,-3.83158 -8.62105,-8.62105v-23.57895c0,-4.78947 3.83158,-8.62105 8.62105,-8.62105c4.78947,0 8.62105,3.83158 8.62105,8.62105v23.57895c0,4.78947 -3.83158,8.62105 -8.62105,8.62105z" />
    <path d="M173.83158,352.20183c8.10526,0 14.73684,-6.63158 14.73684,-14.73684v-23.57895c0,-8.10526 -6.63158,-14.73684 -14.73684,-14.73684c-8.10526,0 -14.73684,6.63158 -14.73684,14.73684v23.57895c0,8.10526 6.63158,14.73684 14.73684,14.73684zM173.83158,346.08604c-4.78947,0 -8.62105,-3.83158 -8.62105,-8.62105v-23.57895c0,-4.78947 3.83158,-8.62105 8.62105,-8.62105c4.78947,0 8.62105,3.83158 8.62105,8.62105v23.57895c0,4.78947 -3.83158,8.62105 -8.62105,8.62105z" />
    <path d="M194.46316,351.46499h6.11579v-37.57895c0,-4.78947 3.83158,-8.62105 8.62105,-8.62105c4.78947,0 8.62105,3.83158 8.62105,8.62105v37.57895h6.11579v-37.57895c0,-8.10526 -6.63158,-14.73684 -14.73684,-14.73684c-8.10526,0 -14.73684,6.63158 -14.73684,14.73684z" />
    <path d="M229.09474,336.72815v0.73684c0,8.10526 6.63158,14.73684 14.73684,14.73684c8.10526,0 14.73684,-6.63158 14.73684,-14.73684c0,-8.03158 -5.15789,-13.77895 -14.73684,-14.95789c-5.15789,-0.66316 -8.62105,-3.53684 -8.62105,-8.62105c0,-4.78947 3.83158,-8.62105 8.62105,-8.62105c4.78947,0 8.62105,3.83158 8.62105,8.62105v0.73684h6.11579v-0.73684c0,-8.10526 -6.63158,-14.73684 -14.73684,-14.73684c-8.10526,0 -14.73684,6.63158 -14.73684,14.73684c0,8.03158 5.15789,13.77895 14.73684,14.95789c5.15789,0.66316 8.62105,3.61053 8.62105,8.62105c0,4.78947 -3.83158,8.62105 -8.62105,8.62105c-4.78947,0 -8.62105,-3.83158 -8.62105,-8.62105v-0.73684z" />
    <path d="M263.72632,351.46499h6.11579v-22.69474h17.24211v22.69474h6.11579v-51.57895h-6.11579v22.76842h-17.24211v-22.76842h-6.11579z" />
    <path d="M299.09474,351.46499h6.11579v-51.57895h-6.11579z" />
    <path d="M311.10526,351.46499h6.11579v-37.57895c0,-4.78947 3.83158,-8.62105 8.62105,-8.62105c4.78947,0 8.62105,3.83158 8.62105,8.62105v37.57895h6.11579v-37.57895c0,-8.10526 -6.63158,-14.73684 -14.73684,-14.73684c-8.10526,0 -14.73684,6.63158 -14.73684,14.73684z" />
    <path d="M346.47368,351.46499h25.78947v-6.11579h-19.67368v-16.57895h18.2v-6.11579h-18.2v-16.65263h19.67368v-6.11579h-25.78947z" />
    <path d="M417.21053,336.72815h-6.11579v0.73684c0,4.78947 -3.83158,8.62105 -8.62105,8.62105c-4.78947,0 -8.62105,-3.83158 -8.62105,-8.62105v-23.57895c0,-4.78947 3.83158,-8.62105 8.62105,-8.62105c4.78947,0 8.62105,3.83158 8.62105,8.62105v0.73684h6.11579v-0.73684c0,-8.10526 -6.63158,-14.73684 -14.73684,-14.73684c-8.10526,0 -14.73684,6.63158 -14.73684,14.73684v23.57895c0,8.10526 6.63158,14.73684 14.73684,14.73684c8.10526,0 14.73684,-6.63158 14.73684,-14.73684z" />
    <path d="M421.63158,336.72815v0.73684c0,8.10526 6.63158,14.73684 14.73684,14.73684c8.10526,0 14.73684,-6.63158 14.73684,-14.73684c0,-8.03158 -5.15789,-13.77895 -14.73684,-14.95789c-5.15789,-0.66316 -8.62105,-3.53684 -8.62105,-8.62105c0,-4.78947 3.83158,-8.62105 8.62105,-8.62105c4.78947,0 8.62105,3.83158 8.62105,8.62105v0.73684h6.11579v-0.73684c0,-8.10526 -6.63158,-14.73684 -14.73684,-14.73684c-8.10526,0 -14.73684,6.63158 -14.73684,14.73684c0,8.03158 5.15789,13.77895 14.73684,14.95789c5.15789,0.66316 8.62105,3.61053 8.62105,8.62105c0,4.78947 -3.83158,8.62105 -8.62105,8.62105c-4.78947,0 -8.62105,-3.83158 -8.62105,-8.62105v-0.73684z" />
    <path d="M455.52632,336.72815v0.73684c0,8.10526 6.63158,14.73684 14.73684,14.73684c8.10526,0 14.73684,-6.63158 14.73684,-14.73684c0,-8.03158 -5.15789,-13.77895 -14.73684,-14.95789c-5.15789,-0.66316 -8.62105,-3.53684 -8.62105,-8.62105c0,-4.78947 3.83158,-8.62105 8.62105,-8.62105c4.78947,0 8.62105,3.83158 8.62105,8.62105v0.73684h6.11579v-0.73684c0,-8.10526 -6.63158,-14.73684 -14.73684,-14.73684c-8.10526,0 -14.73684,6.63158 -14.73684,14.73684c0,8.03158 5.15789,13.77895 14.73684,14.95789c5.15789,0.66316 8.62105,3.61053 8.62105,8.62105c0,4.78947 -3.83158,8.62105 -8.62105,8.62105c-4.78947,0 -8.62105,-3.83158 -8.62105,-8.62105v-0.73684z" />
    <path d="M328.48035,139.81781c-13.14712,-13.15413 -30.68566,-20.99475 -49.25509,-22.01964h-0.10054c-1.7526,0.0262 -3.18801,1.42266 -3.25079,3.18612c-0.10785,1.86067 1.30301,3.46103 3.16252,3.58733c37.05342,2.14587 65.73041,33.28766 64.8206,70.39206c-0.90958,37.1044 -31.07838,66.8033 -68.19269,67.13065c-37.11407,0.32734 -67.80188,-28.83488 -69.36589,-65.91757c-0.11388,-1.85668 -1.68078,-3.28784 -3.54014,-3.23333c-0.89942,0.03516 -1.7482,0.42553 -2.3601,1.08564c-0.48616,0.53716 -0.78943,1.21026 -0.87323,1.92253v0.93365c1.70319,33.50149 25.31527,61.89196 57.99262,69.64391c32.83877,7.79042 66.85995,-7.15296 83.33999,-36.60595c16.47981,-29.45299 11.41765,-66.26497 -12.40086,-90.17623zM275.0479,256.33548c34.15547,0.21028 62.26981,-26.81039 63.41422,-60.94745c1.14465,-34.13682 -25.09697,-62.97982 -59.18966,-65.05779c-1.864,-0.0717 -3.43299,1.38119 -3.50473,3.24512c-0.07175,1.86393 1.38112,3.43303 3.24512,3.50473c24.92421,1.77753 45.69631,19.76717 51.01525,44.18207c5.31918,24.4149 -6.08691,49.41487 -28.0131,61.39941c-21.92595,11.9843 -49.12717,8.08662 -66.80543,-9.573c-1.31669,-1.27091 -3.40348,-1.27091 -4.72018,0c-1.24684,1.32637 -1.24684,3.39381 0,4.72018c11.78984,11.86772 27.82995,18.53686 44.55851,18.52671zM318.87738,194.75553c0.78756,-23.18293 -16.60678,-42.97324 -39.69932,-45.16694l-0.35402,-0.0944c-1.77125,-0.10148 -3.13538,-1.60203 -3.06812,-3.37493c0.12131,-1.80052 1.59448,-3.21232 3.39853,-3.25693h0.61363c26.44245,2.76673 46.23936,25.51683 45.32601,52.08791c-0.91312,26.57131 -22.22521,47.90843 -48.79535,48.85317c-1.84182,0.02643 -3.35982,-1.43895 -3.39853,-3.28053c-0.00071,-1.84063 1.4642,-3.34732 3.30413,-3.39853c23.18812,-0.62165 41.88547,-19.18565 42.67303,-42.36882zM297.68117,215.90713c9.16706,-9.15668 11.91374,-22.93466 6.95873,-34.90645c-4.95501,-11.97203 -16.6351,-19.77898 -29.592,-19.77898c-12.9569,0 -24.63699,7.80694 -29.592,19.77898c-4.95501,11.9718 -2.20834,25.74977 6.95873,34.90645c12.51485,12.46411 32.75169,12.46411 45.26654,0z" data-paper-data="{&quot;isPathIcon&quot;:true}" />
  </g>
</svg>