<svg
  width="579"
  height="166"
  viewBox="0 0 579 166"
  fill="none"
  xmlns="http://www.w3.org/2000/svg">
  <rect x="3" y="3" width="573" height="160" rx="9" fill="#45082E"/>
  <rect x="3" y="3" width="573" height="160" rx="9" stroke="white" stroke-width="5"/>
  <path d="M134 92.9053C111.273 106.434 102.636 79.3769 64 92.9053V122.968C64 131.27 70.1052 138 77.6364 138H120.364C127.895 138 134 131.27 134 122.968V92.9053Z" fill="#BD1B29"/>
  <path d="M64 93.3547C86.7273 106.748 112.182 83.9296 134 93.3547V123.118C134 131.337 127.895 138 120.364 138H77.6364C70.1052 138 64 131.337 64 123.118V93.3547Z" fill="url(#gradient)"/>
  <path d="M74.3526 39.3377C69.5169 40.1906 65.9615 44.3151 65.6774 49.2937C65.3935 54.1294 68.3791 58.3959 72.9306 59.8188C73.3576 59.9608 74.0685 60.1027 74.7794 60.1027C75.6322 60.1027 76.4863 59.9608 77.3391 59.2499C78.6189 58.2539 79.7569 57.4011 80.8948 56.6902L82.1747 55.6942C87.1521 51.0006 86.4412 47.1611 85.5883 45.4541C83.7395 40.9014 79.0462 38.4836 74.3526 39.3377ZM79.0462 51.7104L77.9083 52.4213C76.7704 53.2741 75.4905 54.1281 74.3526 54.839C71.9348 54.1281 70.5131 51.8523 70.5131 49.4346C70.655 46.7329 72.5038 44.5989 75.0646 44.1722C75.3485 44.1722 75.6335 44.0302 76.0606 44.0302C78.1944 44.0302 80.1851 45.3101 81.038 47.1589C81.6057 48.298 80.7531 50.0036 79.0462 51.7104Z" fill="white"/>
  <path d="M80.6111 107.464L76.0596 112.158L71.366 107.464L67.8115 111.02L72.5039 115.713L67.8115 120.407L71.366 123.819L76.0596 119.269L80.6111 123.819L84.1668 120.407L79.4732 115.713L84.1668 111.02L80.6111 107.464Z" fill="white"/>
  <path d="M102.798 107.464L98.2468 112.158L93.5532 107.464L89.9974 111.02L94.691 115.713L89.9974 120.407L93.5532 123.819L98.2468 119.269L102.798 123.819L106.354 120.407L101.802 115.713L106.354 111.02L102.798 107.464Z" fill="white"/>
  <path d="M126.265 107.464L121.571 112.158L116.878 107.464L113.322 111.02L118.016 115.713L113.322 120.407L116.878 123.819L121.571 119.269L126.265 123.819L129.821 120.407L125.127 115.713L129.821 111.02L126.265 107.464Z" fill="white"/>
  <path d="M141.908 83.4268C141.908 76.1736 139.063 69.631 133.659 63.9427C129.961 59.96 125.695 56.8313 121.428 53.7026L119.437 52.1377C116.167 49.72 115.598 45.8804 117.872 42.6088L118.583 41.6128C119.01 41.1858 119.294 40.6169 119.721 40.191C121.001 38.3422 121.286 36.3515 120.717 34.6445C120.148 32.7957 118.726 31.3738 116.593 30.6618C115.455 30.2347 114.175 30.0928 112.753 30.0928H108.77L110.619 21.5597C110.761 20.2798 109.908 19 108.77 19H88.7163C87.4364 19 86.5824 20.4218 86.8675 21.5597L89.1433 29.9508C85.8726 29.9508 82.0319 30.0927 77.0545 30.0927C73.4987 30.0927 69.0901 30.5197 65.5347 33.9322C65.3928 34.0742 65.1077 34.3592 64.8238 34.5012C64.2549 35.0701 63.544 35.4971 63.2589 35.781C63.2589 36.0661 62.548 36.777 61.9791 37.489C61.4101 38.058 60.9831 38.7689 60.6992 38.9109C59.2774 40.3327 58.1395 42.1816 57.5705 44.1733C55.2947 52.1376 57.2867 59.2487 63.2588 64.9385C58.4231 70.485 55.8636 77.3123 56.0056 85.2766C56.1476 96.5126 56.0056 107.747 56.0056 119.125V124.813C56.0056 128.653 56.4326 133.631 60.1301 137.898C63.4008 142.734 71.7919 146.858 77.3396 146.858C84.024 147 90.9922 147 98.3874 147C105.357 147 112.752 147 120.432 146.858C125.979 146.858 133.659 143.729 137.783 137.614C140.343 134.343 141.766 130.645 141.766 126.663V115.285C141.908 104.76 141.908 94.0932 141.908 83.4249L141.908 83.4268ZM136.931 115.284V126.662C136.931 129.507 135.935 132.067 134.229 134.342C129.536 140.743 124.7 141.881 120.575 141.881C104.504 142.023 90.4239 142.023 77.4803 141.881C72.9288 141.739 65.9606 137.472 63.9698 134.486C61.9791 132.21 61.125 129.223 61.125 124.815V85.2779C61.125 78.3086 63.1158 72.6203 67.5253 67.7847C69.3741 65.7939 69.2322 63.6601 66.9564 61.5273C62.2628 56.9758 60.699 51.8563 62.4048 45.4557C62.6887 44.4598 63.2576 43.465 64.2536 42.3271C64.5375 42.0432 65.1064 41.3311 65.8185 40.6202C66.3875 40.0513 66.9564 39.3403 67.0984 39.1984C67.3822 38.9145 67.8093 38.6294 68.2363 38.2024C68.5202 38.0605 68.6633 37.7754 68.9472 37.6335C68.9472 37.4915 69.0891 37.4915 69.0891 37.4915C69.373 37.2076 69.5161 37.0645 69.6581 36.9226C71.3649 35.6427 73.6408 35.0738 77.0533 35.0738C100.805 34.9319 100.662 35.0738 112.607 35.0738C113.46 35.0738 114.172 35.2157 114.741 35.3577C115.31 35.4996 115.737 35.7847 115.737 36.2105C115.879 36.4944 115.737 36.9214 115.31 37.4904C115.026 37.9174 114.741 38.3432 114.457 38.7702L113.605 39.9081C109.765 45.3126 110.903 52.282 116.306 56.2635L118.297 57.8284C122.422 60.9571 126.403 63.802 129.817 67.3574C134.368 72.193 136.643 77.4554 136.643 83.5707C136.928 94.0934 136.928 104.761 136.928 115.284L136.931 115.284Z" fill="white"/>
  <path d="M169.88 34.592H185.792L197.888 65.48L209.84 34.592H225.176V39.56H218.408V72.032H225.176V77H208.04V72.032H212.648V39.56L209.408 48.92L200.624 71.888H194.432L185.216 48.776L181.904 39.56L181.688 72.032H186.44V77H169.592V72.032H176.504L176.576 39.56H169.88V34.592ZM245.765 45.032C248.981 45.032 251.765 45.704 254.117 47.048C256.517 48.344 258.389 50.24 259.733 52.736C261.077 55.184 261.749 58.136 261.749 61.592C261.749 66.728 260.285 70.76 257.357 73.688C254.429 76.616 250.565 78.08 245.765 78.08C242.693 78.08 239.957 77.432 237.557 76.136C235.205 74.792 233.357 72.896 232.013 70.448C230.717 67.952 230.069 65 230.069 61.592C230.069 58.136 230.717 55.184 232.013 52.736C233.357 50.24 235.205 48.344 237.557 47.048C239.957 45.704 242.693 45.032 245.765 45.032ZM245.837 49.64C242.525 49.64 240.029 50.696 238.349 52.808C236.669 54.872 235.829 57.8 235.829 61.592C235.829 65.384 236.669 68.312 238.349 70.376C240.029 72.44 242.525 73.472 245.837 73.472C249.245 73.472 251.789 72.44 253.469 70.376C255.149 68.312 255.989 65.384 255.989 61.592C255.989 57.8 255.149 54.872 253.469 52.808C251.789 50.696 249.245 49.64 245.837 49.64ZM283.312 45.032C286.528 45.032 289.312 45.704 291.664 47.048C294.064 48.344 295.936 50.24 297.28 52.736C298.624 55.184 299.296 58.136 299.296 61.592C299.296 66.728 297.832 70.76 294.904 73.688C291.976 76.616 288.112 78.08 283.312 78.08C280.24 78.08 277.504 77.432 275.104 76.136C272.752 74.792 270.904 72.896 269.56 70.448C268.264 67.952 267.616 65 267.616 61.592C267.616 58.136 268.264 55.184 269.56 52.736C270.904 50.24 272.752 48.344 275.104 47.048C277.504 45.704 280.24 45.032 283.312 45.032ZM283.384 49.64C280.072 49.64 277.576 50.696 275.896 52.808C274.216 54.872 273.376 57.8 273.376 61.592C273.376 65.384 274.216 68.312 275.896 70.376C277.576 72.44 280.072 73.472 283.384 73.472C286.792 73.472 289.336 72.44 291.016 70.376C292.696 68.312 293.536 65.384 293.536 61.592C293.536 57.8 292.696 54.872 291.016 52.808C289.336 50.696 286.792 49.64 283.384 49.64ZM303.829 77V72.536H309.877V51.872L302.965 49.496L304.477 45.032L314.053 48.344C315.733 47.24 317.509 46.424 319.381 45.896C321.301 45.32 323.173 45.032 324.997 45.032C327.301 45.032 329.413 45.488 331.333 46.4C333.301 47.264 334.861 48.608 336.013 50.432C337.213 52.208 337.813 54.464 337.813 57.2V72.536H343.861V77H328.957V72.536H332.197V58.352C332.197 55.28 331.405 53.072 329.821 51.728C328.285 50.336 326.365 49.64 324.061 49.64C322.717 49.64 321.301 49.856 319.813 50.288C318.373 50.672 316.933 51.272 315.493 52.088V72.536H318.733V77H303.829ZM368.203 50.648C367.147 50.216 366.139 49.88 365.179 49.64C364.219 49.4 362.971 49.28 361.435 49.28C359.611 49.28 357.955 49.688 356.467 50.504C355.027 51.32 354.307 52.472 354.307 53.96C354.307 55.4 354.907 56.528 356.107 57.344C357.355 58.112 359.083 58.616 361.291 58.856L364.243 59.144C368.179 59.528 370.939 60.512 372.523 62.096C374.107 63.632 374.899 65.672 374.899 68.216C374.899 70.184 374.347 71.912 373.243 73.4C372.187 74.888 370.675 76.04 368.707 76.856C366.787 77.672 364.531 78.08 361.939 78.08C359.587 78.08 357.283 77.768 355.027 77.144C352.819 76.52 350.899 75.752 349.267 74.84L348.043 67.568L353.011 66.344L354.091 71.384C355.195 72.008 356.395 72.488 357.691 72.824C359.035 73.16 360.379 73.328 361.723 73.328C363.835 73.328 365.683 72.92 367.267 72.104C368.899 71.24 369.715 69.992 369.715 68.36C369.715 66.92 369.235 65.912 368.275 65.336C367.315 64.712 365.635 64.256 363.235 63.968L360.067 63.608C356.515 63.224 353.803 62.192 351.931 60.512C350.059 58.832 349.123 56.768 349.123 54.32C349.123 52.208 349.723 50.456 350.923 49.064C352.123 47.672 353.659 46.64 355.531 45.968C357.451 45.296 359.443 44.96 361.507 44.96C363.763 44.96 365.779 45.176 367.555 45.608C369.331 46.04 371.035 46.664 372.667 47.48L373.963 54.32L369.427 55.328L368.203 50.648ZM379.45 77V72.536H385.498V37.04L378.658 34.664L380.17 30.2L391.114 33.944V48.056C394.234 46.04 397.378 45.032 400.546 45.032C404.962 45.032 408.202 46.016 410.266 47.984C412.378 49.952 413.434 53.024 413.434 57.2V72.536H419.482V77H404.578V72.536H407.818V58.352C407.818 55.28 407.218 53.072 406.018 51.728C404.818 50.336 402.874 49.64 400.186 49.64C398.602 49.64 396.97 49.88 395.29 50.36C393.61 50.792 392.218 51.368 391.114 52.088V72.536H394.354V77H379.45ZM423.701 46.112H435.365V72.536H441.341V77H423.701V72.536H429.677V50.576H423.701V46.112ZM431.765 30.776C433.109 30.776 434.189 31.184 435.005 32C435.821 32.816 436.229 33.896 436.229 35.24C436.229 36.584 435.821 37.664 435.005 38.48C434.189 39.296 433.109 39.704 431.765 39.704C430.421 39.704 429.341 39.296 428.525 38.48C427.757 37.664 427.373 36.584 427.373 35.24C427.373 33.896 427.757 32.816 428.525 32C429.341 31.184 430.421 30.776 431.765 30.776ZM446.001 77V72.536H452.049V51.872L445.137 49.496L446.649 45.032L456.225 48.344C457.905 47.24 459.681 46.424 461.553 45.896C463.473 45.32 465.345 45.032 467.169 45.032C469.473 45.032 471.585 45.488 473.505 46.4C475.473 47.264 477.033 48.608 478.185 50.432C479.385 52.208 479.985 54.464 479.985 57.2V72.536H486.033V77H471.129V72.536H474.369V58.352C474.369 55.28 473.577 53.072 471.993 51.728C470.457 50.336 468.537 49.64 466.233 49.64C464.889 49.64 463.473 49.856 461.985 50.288C460.545 50.672 459.105 51.272 457.665 52.088V72.536H460.905V77H446.001ZM519.104 73.328C517.184 74.96 515.216 76.16 513.2 76.928C511.232 77.696 508.976 78.08 506.432 78.08C503.072 78.08 500.144 77.432 497.648 76.136C495.152 74.792 493.208 72.896 491.816 70.448C490.472 67.952 489.8 64.976 489.8 61.52C489.8 58.208 490.448 55.328 491.744 52.88C493.04 50.384 494.864 48.464 497.216 47.12C499.616 45.728 502.376 45.032 505.496 45.032C508.424 45.032 510.92 45.656 512.984 46.904C515.048 48.152 516.632 49.904 517.736 52.16C518.888 54.368 519.464 57.008 519.464 60.08C519.464 60.512 519.44 60.968 519.392 61.448C519.392 61.88 519.368 62.336 519.32 62.816L495.344 62.96C495.488 65.408 496.064 67.4 497.072 68.936C498.128 70.472 499.448 71.6 501.032 72.32C502.664 73.04 504.392 73.4 506.216 73.4C508.328 73.4 510.224 73.112 511.904 72.536C513.584 71.96 515.12 71.096 516.512 69.944L519.104 73.328ZM513.92 58.424C513.872 55.736 513.08 53.576 511.544 51.944C510.056 50.264 508.064 49.424 505.568 49.424C503.024 49.424 500.792 50.264 498.872 51.944C496.952 53.576 495.8 55.76 495.416 58.496L513.92 58.424ZM199.04 95.136C198.56 94.848 197.912 94.584 197.096 94.344C196.328 94.056 195.392 93.84 194.288 93.696C193.232 93.504 192.008 93.408 190.616 93.408C185.96 93.408 182.408 94.968 179.96 98.088C177.512 101.16 176.288 105.384 176.288 110.76C176.288 116.232 177.536 120.504 180.032 123.576C182.576 126.648 186.104 128.184 190.616 128.184C191.816 128.184 192.944 128.112 194 127.968C195.056 127.776 196.016 127.56 196.88 127.32C197.744 127.08 198.464 126.864 199.04 126.672L200.408 120.912L205.304 122.064L203.504 130.416C203.504 130.416 202.976 130.656 201.92 131.136C200.864 131.568 199.352 132 197.384 132.432C195.464 132.864 193.208 133.08 190.616 133.08C186.488 133.08 182.888 132.168 179.816 130.344C176.792 128.52 174.44 125.952 172.76 122.64C171.08 119.28 170.216 115.32 170.168 110.76C170.168 106.248 170.984 102.336 172.616 99.024C174.296 95.664 176.672 93.072 179.744 91.248C182.816 89.376 186.416 88.464 190.544 88.512C193.712 88.512 196.256 88.8 198.176 89.376C200.144 89.904 201.56 90.456 202.424 91.032C203.336 91.56 203.792 91.848 203.792 91.896L205.376 100.248L200.48 101.328L199.04 95.136ZM228.07 133.08C224.662 133.08 221.686 132.768 219.142 132.144C216.646 131.52 214.558 130.896 212.878 130.272L211.51 121.488L216.262 121.056L217.27 126.456C218.71 126.936 220.222 127.344 221.806 127.68C223.438 128.016 225.502 128.184 227.998 128.184C229.774 128.184 231.406 127.944 232.894 127.464C234.43 126.936 235.654 126.12 236.566 125.016C237.526 123.864 238.006 122.328 238.006 120.408C238.006 118.488 237.502 116.832 236.494 115.44C235.486 114.048 233.566 113.16 230.734 112.776L225.262 111.984C221.134 111.36 217.966 109.992 215.758 107.88C213.598 105.768 212.518 103.128 212.518 99.96C212.518 97.8 213.046 95.856 214.102 94.128C215.206 92.4 216.886 91.032 219.142 90.024C221.398 89.016 224.254 88.512 227.71 88.512C229.582 88.512 231.238 88.584 232.678 88.728C234.166 88.872 235.582 89.112 236.926 89.448C238.318 89.784 239.806 90.264 241.39 90.888L242.614 99.816L237.862 100.32L236.926 94.56C235.966 94.176 234.718 93.888 233.182 93.696C231.646 93.456 229.846 93.336 227.782 93.336C224.71 93.336 222.262 93.888 220.438 94.992C218.662 96.096 217.774 97.704 217.774 99.816C217.774 101.832 218.422 103.392 219.718 104.496C221.062 105.6 222.91 106.32 225.262 106.656L231.814 107.664C235.894 108.288 238.894 109.656 240.814 111.768C242.782 113.88 243.766 116.496 243.766 119.616C243.766 121.824 243.334 123.792 242.47 125.52C241.654 127.2 240.526 128.592 239.086 129.696C237.646 130.8 235.966 131.64 234.046 132.216C232.174 132.792 230.182 133.08 228.07 133.08ZM266.672 133.08C263.264 133.08 260.288 132.768 257.744 132.144C255.248 131.52 253.16 130.896 251.48 130.272L250.112 121.488L254.864 121.056L255.872 126.456C257.312 126.936 258.824 127.344 260.408 127.68C262.04 128.016 264.104 128.184 266.6 128.184C268.376 128.184 270.008 127.944 271.496 127.464C273.032 126.936 274.256 126.12 275.168 125.016C276.128 123.864 276.608 122.328 276.608 120.408C276.608 118.488 276.104 116.832 275.096 115.44C274.088 114.048 272.168 113.16 269.336 112.776L263.864 111.984C259.736 111.36 256.568 109.992 254.36 107.88C252.2 105.768 251.12 103.128 251.12 99.96C251.12 97.8 251.648 95.856 252.704 94.128C253.808 92.4 255.488 91.032 257.744 90.024C260 89.016 262.856 88.512 266.312 88.512C268.184 88.512 269.84 88.584 271.28 88.728C272.768 88.872 274.184 89.112 275.528 89.448C276.92 89.784 278.408 90.264 279.992 90.888L281.216 99.816L276.464 100.32L275.528 94.56C274.568 94.176 273.32 93.888 271.784 93.696C270.248 93.456 268.448 93.336 266.384 93.336C263.312 93.336 260.864 93.888 259.04 94.992C257.264 96.096 256.376 97.704 256.376 99.816C256.376 101.832 257.024 103.392 258.32 104.496C259.664 105.6 261.512 106.32 263.864 106.656L270.416 107.664C274.496 108.288 277.496 109.656 279.416 111.768C281.384 113.88 282.368 116.496 282.368 119.616C282.368 121.824 281.936 123.792 281.072 125.52C280.256 127.2 279.128 128.592 277.688 129.696C276.248 130.8 274.568 131.64 272.648 132.216C270.776 132.792 268.784 133.08 266.672 133.08Z" fill="white"/>
  <defs>
    <linearGradient id="gradient" x1="64" y1="115.677" x2="134" y2="116.094" gradientUnits="userSpaceOnUse">
      <stop stop-color="#FF383E"/>
      <stop offset="1" stop-color="#FF363F"/>
    </linearGradient>
  </defs>
</svg>
